<svg xmlns="http://www.w3.org/2000/svg" version="1.1" xmlns:xlink="http://www.w3.org/1999/xlink" xmlns:svgjs="http://svgjs.com/svgjs" width="512" height="512" x="0" y="0" viewBox="0 0 483.833 483.833" style="enable-background:new 0 0 512 512" xml:space="preserve"><g>
<g xmlns="http://www.w3.org/2000/svg">
	<g>
		<path d="M469.535,27.155l-2.432-2.432c-8.576-8.545-20.193-13.184-32.256-12.928c-12.063,0.225-23.491,5.407-31.683,14.305    L155.772,295.955l-4.864,2.079l-4.736-2.176l-61.379-71.68c-8.893-10.337-21.632-16.512-35.261-17.055    c-13.635-0.543-26.88,4.669-36.511,14.269c-15.36,15.391-17.377,39.613-4.736,57.313l126.623,177.311    c7.199,10.081,18.816,16.031,31.201,16.031h11.039c20.833,0,40.32-10.173,52.127-27.295L475.162,89.619    C488.607,70.194,486.175,43.887,469.535,27.155z" fill="#000000" data-original="#000000"></path>
	</g>
</g>
<g xmlns="http://www.w3.org/2000/svg">
</g>
<g xmlns="http://www.w3.org/2000/svg">
</g>
<g xmlns="http://www.w3.org/2000/svg">
</g>
<g xmlns="http://www.w3.org/2000/svg">
</g>
<g xmlns="http://www.w3.org/2000/svg">
</g>
<g xmlns="http://www.w3.org/2000/svg">
</g>
<g xmlns="http://www.w3.org/2000/svg">
</g>
<g xmlns="http://www.w3.org/2000/svg">
</g>
<g xmlns="http://www.w3.org/2000/svg">
</g>
<g xmlns="http://www.w3.org/2000/svg">
</g>
<g xmlns="http://www.w3.org/2000/svg">
</g>
<g xmlns="http://www.w3.org/2000/svg">
</g>
<g xmlns="http://www.w3.org/2000/svg">
</g>
<g xmlns="http://www.w3.org/2000/svg">
</g>
<g xmlns="http://www.w3.org/2000/svg">
</g>
</g></svg>